<?xml version="1.0" encoding="UTF-8" standalone="no"?>
<!-- Creator: CorelDRAW -->

<svg
   xmlns:dc="http://purl.org/dc/elements/1.1/"
   xmlns:cc="http://creativecommons.org/ns#"
   xmlns:rdf="http://www.w3.org/1999/02/22-rdf-syntax-ns#"
   xmlns:svg="http://www.w3.org/2000/svg"
   xmlns="http://www.w3.org/2000/svg"
   xmlns:sodipodi="http://sodipodi.sourceforge.net/DTD/sodipodi-0.dtd"
   xmlns:inkscape="http://www.inkscape.org/namespaces/inkscape"
   xml:space="preserve"
   width="442.46365"
   height="422.85043"
   viewBox="0 0 452.069 431.87624"
   version="1.1"
   id="svg54"
   sodipodi:docname="uni-bremen-logo.svg"
   style="clip-rule:evenodd;fill-rule:evenodd;image-rendering:optimizeQuality;shape-rendering:geometricPrecision;text-rendering:geometricPrecision"
   inkscape:version="0.92.3 (2405546, 2018-03-11)"><metadata
   id="metadata60"><rdf:RDF><cc:Work
       rdf:about=""><dc:format>image/svg+xml</dc:format><dc:type
         rdf:resource="http://purl.org/dc/dcmitype/StillImage" /><dc:title></dc:title></cc:Work></rdf:RDF></metadata><defs
   id="defs58" /><sodipodi:namedview
   pagecolor="#ffffff"
   bordercolor="#666666"
   borderopacity="1"
   objecttolerance="10"
   gridtolerance="10"
   guidetolerance="10"
   inkscape:pageopacity="0"
   inkscape:pageshadow="2"
   inkscape:window-width="1916"
   inkscape:window-height="1044"
   id="namedview56"
   showgrid="false"
   fit-margin-top="0"
   fit-margin-left="0"
   fit-margin-right="0"
   fit-margin-bottom="0"
   inkscape:zoom="0.57"
   inkscape:cx="543.50351"
   inkscape:cy="368.18399"
   inkscape:window-x="0"
   inkscape:window-y="16"
   inkscape:window-maximized="0"
   inkscape:current-layer="svg54" />
 <g
   id="Ebene_x0020_1"
   transform="translate(0,-0.07639985)">
  <metadata
   id="CorelCorpID_0Corel-Layer" />
  
  
  
  
  
  
  
  
  
  
  
  
  
  
  
  
  
  <path
   d="m 149.742,197.616 c -0.15205,43.2992 34.3382,77.238 75.5414,77.238 41.6678,0 75.5462,-33.9388 75.5462,-77.238 V 0 h -37.6977 v 197.616 c 0,21.5712 -16.9362,38.0657 -37.8485,38.0657 -20.1436,0 -37.8449,-17.1281 -37.8449,-38.0657 V 78.827 H 149.742 Z"
   id="path37"
   inkscape:connector-curvature="0"
   style="fill:#c4263a" />
  <polygon
   points="36.3522,39.3328 36.3522,0 0,0 0,39.3328 "
   id="polygon39"
   style="fill:#c4263a" />
  <polygon
   points="74.0439,78.6668 74.0439,39.3328 36.3522,39.3328 36.3522,78.6668 "
   id="polygon41"
   style="fill:#c4263a" />
  <polygon
   points="111.894,39.3328 111.894,0 74.0439,0 74.0439,39.3328 "
   id="polygon43"
   style="fill:#c4263a" />
  <polygon
   points="187.439,39.3328 149.742,39.3328 149.742,0 187.439,0 "
   id="polygon45"
   style="fill:#c4263a" />
  <polygon
   points="149.742,78.6668 111.894,78.6668 111.894,39.3328 149.742,39.3328 "
   id="polygon47"
   style="fill:#c4263a" />
  <path
   d="M 452.069,0.160493 V 197.61649 c 0,129.577 -101.64,234.413 -226.629,234.413 -116.099,0 -212.509,-90.6868 -225.44,-207.605 V 78.666493 H 36.3522 V 197.61549 c 0,108.009 85.0056,195.081 189.088,195.081 104.081,0 188.779,-87.0715 188.779,-195.081 V -5.07e-4 l 37.8497,0.160493 z"
   id="path49"
   inkscape:connector-curvature="0"
   style="fill:#c4263a" />
  <path
   d="m 338.678,0 v 197.616 c 0,64.8704 -50.9751,116.571 -113.395,116.571 -62.5704,0 -113.39,-51.7004 -113.39,-116.571 V 78.51 H 74.0433 v 119.106 c 0,86.438 67.9138,155.748 151.24,155.748 83.3307,0 151.092,-69.3099 151.092,-155.748 V 0.16 L 338.6776,-4.93e-4 Z"
   id="path51"
   inkscape:connector-curvature="0"
   style="fill:#c4263a" />
 </g>
</svg>